<svg width="60" height="64" viewBox="0 0 60 64" fill="none" xmlns="http://www.w3.org/2000/svg">
<path d="M19.4266 43.5385L42.5035 20.4615M30.1251 2L38.2851 6.89231L47.7605 7.72769L51.4851 16.4831L58.6574 22.7231L56.5251 32L58.6574 41.2723L51.4851 47.5169L47.7605 56.2723L38.2851 57.1077L30.1251 62L21.9697 57.1077L12.4897 56.2723L8.7697 47.5169L1.59277 41.2723L3.72508 32L1.59277 22.7277L8.7697 16.4831L12.4897 7.72769L21.9697 6.89231L30.1251 2ZM26.3497 25.0769C26.3497 26.301 25.8634 27.4749 24.9979 28.3405C24.1323 29.206 22.9584 29.6923 21.7343 29.6923C20.5102 29.6923 19.3363 29.206 18.4707 28.3405C17.6052 27.4749 17.1189 26.301 17.1189 25.0769C17.1189 23.8528 17.6052 22.6789 18.4707 21.8134C19.3363 20.9478 20.5102 20.4615 21.7343 20.4615C22.9584 20.4615 24.1323 20.9478 24.9979 21.8134C25.8634 22.6789 26.3497 23.8528 26.3497 25.0769ZM44.8112 41.2308C44.8112 42.4548 44.325 43.6288 43.4594 44.4943C42.5939 45.3599 41.4199 45.8462 40.1959 45.8462C38.9718 45.8462 37.7978 45.3599 36.9323 44.4943C36.0667 43.6288 35.5805 42.4548 35.5805 41.2308C35.5805 40.0067 36.0667 38.8328 36.9323 37.9672C37.7978 37.1016 38.9718 36.6154 40.1959 36.6154C41.4199 36.6154 42.5939 37.1016 43.4594 37.9672C44.325 38.8328 44.8112 40.0067 44.8112 41.2308Z" stroke="#0F67B1" stroke-width="1.8"/>
</svg>
