<svg width="44" height="61" viewBox="0 0 44 61" fill="none" xmlns="http://www.w3.org/2000/svg">
<path d="M38.3403 23.9708L38.0341 25.0616C37.3618 27.456 36.0369 29.6155 34.2078 31.2978L34.1992 31.3057L34.1991 31.3057L33.8533 31.6115L33.8421 31.6227L33.8281 31.6351L33.4489 31.9706C33.4479 31.9714 33.447 31.9723 33.446 31.9732C29.8679 35.2254 27.3594 39.4894 26.2527 44.2012C26.2526 44.2017 26.2525 44.2021 26.2524 44.2025L26.1354 44.7107L26.1349 44.7126L25.4328 47.8077C25.4327 47.8079 25.4327 47.8081 25.4326 47.8084C24.9676 49.8769 24.6312 51.3523 24.298 52.4742L24.2975 52.476C23.9623 53.5927 23.6676 54.2274 23.3375 54.6605C22.1588 56.2176 20.3231 57.03 18.4631 56.8552C17.9595 56.808 17.3281 56.6042 16.3209 56.0911L16.3203 56.0908C15.3101 55.5747 14.0523 54.8182 12.2853 53.7493L12.2858 53.7496L12.5955 53.2357L12.2849 53.7491L38.3403 23.9708ZM38.3403 23.9708L37.2659 24.3304M38.3403 23.9708L37.2659 24.3304M37.4564 24.8994L37.6469 25.4684L37.2358 25.606C37.316 25.3731 37.3896 25.1375 37.4564 24.8994ZM37.4564 24.8994L36.8787 24.7372C36.8415 24.8697 36.8021 25.0015 36.7606 25.1323L37.4564 24.8994ZM27.5343 23.1869C26.6258 22.4566 25.5269 22.0029 24.3683 21.8799C23.2098 21.7569 22.0404 21.9698 20.9992 22.4931C20.9991 22.4932 20.9991 22.4932 20.9991 22.4932L17.6655 24.163L17.4258 24.2831L17.3553 24.5418C16.2735 28.5134 14.1861 32.1377 11.2955 35.0635C11.2951 35.0639 11.2947 35.0643 11.2943 35.0647L10.9351 35.4247L10.931 35.4287L27.5343 23.1869ZM27.5343 23.1869C28.7213 24.1396 30.1276 24.779 31.6247 25.0466M27.5343 23.1869L31.6247 25.0466M37.2659 24.3304L36.1049 24.7191M37.2659 24.3304L36.1049 24.7191M36.1049 24.7191C36.1049 24.7191 36.1049 24.7191 36.1048 24.7191M36.1049 24.7191L36.1048 24.7191M36.1048 24.7191C34.6622 25.2017 33.1219 25.3143 31.6247 25.0466M36.1048 24.7191L31.6247 25.0466M36.5876 4.48695L36.0501 4.16389L35.7511 4.71507L35.6824 4.84171L35.6808 4.84463L35.4687 5.23038L35.1912 5.73523L35.6843 6.03304L38.119 7.50323L38.6545 7.8266L38.9552 7.27807L39.1721 6.88259L39.2371 6.76866L39.5256 6.26289L39.0287 5.95935L38.9134 5.88893L38.9104 5.88713L36.7147 4.5634L36.7141 4.56299L36.5876 4.48695ZM37.7958 11.1325L37.7713 10.8258L37.5078 10.6668L33.3695 8.16863L33.0887 7.99909L32.7943 8.14402L25.3059 11.8317C22.22 13.2978 19.8307 15.9169 18.6503 19.127L18.1221 20.5634L19.4858 19.8687L19.6484 19.7859C19.6488 19.7857 19.6493 19.7854 19.6497 19.7852C21.2058 19.0048 22.9526 18.6878 24.683 18.8718C26.4139 19.0558 28.0558 19.7334 29.4141 20.8243L29.4143 20.8245C31.0273 22.1184 33.1884 22.5023 35.1494 21.8496L35.1501 21.8493L38.1161 20.8579L38.5592 20.7098L38.5242 20.244L38.4961 19.8694L38.4959 19.8664L37.7958 11.1325ZM41.5675 22.2527L41.5435 22.3256L41.5386 22.4023C41.2658 26.6588 39.369 30.6456 36.2385 33.5347L35.8532 33.877L35.8433 33.8852L35.8432 33.8851L35.8347 33.8925C32.5154 36.7715 30.1886 40.6269 29.1859 44.9087L29.1853 44.9116L29.0756 45.3904L29.0753 45.3915L28.3584 48.5516L28.3583 48.5524C27.9096 50.5426 27.5546 52.1138 27.1878 53.343L27.1878 53.3431C26.8158 54.5908 26.3938 55.628 25.7443 56.4836L25.7411 56.4878C24.8737 57.6513 23.7232 58.5726 22.3995 59.1638C21.0759 59.755 19.6231 59.9965 18.1799 59.8652C17.1143 59.7656 16.0869 59.366 14.9544 58.7877L14.9539 58.7875C13.8658 58.233 12.5591 57.4467 10.9198 56.4601L10.7972 56.3864L10.7963 56.3858L8.79304 55.1755L8.7927 55.1753L8.61503 55.0678C7.001 54.0913 5.71488 53.3132 4.724 52.6133L4.72345 52.6129C3.67699 51.8755 2.84023 51.1482 2.23631 50.2513C1.41881 49.0279 0.905239 47.6263 0.738553 46.1635C0.571851 44.7005 0.756951 43.2188 1.27837 41.8421C1.66259 40.8311 2.31102 39.9287 3.16301 38.9651L3.16402 38.9639C3.99431 38.0199 5.106 36.9239 6.51209 35.5377L6.54768 35.5026L6.54774 35.5025L8.80415 33.2785C8.80475 33.278 8.80534 33.2774 8.80593 33.2768C11.9688 30.2145 14.0893 26.2328 14.8672 21.896L14.8673 21.896L14.868 21.8918L14.9523 21.4018L14.9538 21.3932L14.955 21.3846L14.9566 21.3735L14.9651 21.3243C15.0018 21.1106 15.0237 20.9831 15.0478 20.8626L15.0478 20.8626L15.0491 20.8559C15.9831 15.8839 19.0919 11.6231 23.4872 9.35876L23.9543 9.1276L23.9553 9.12709L31.902 5.21273L32.0708 5.12956L32.1619 4.96486L33.0699 3.32308L33.07 3.32287L33.0888 3.28893C33.2579 2.98337 33.4243 2.68266 33.585 2.43993L33.585 2.43995L33.5885 2.43455C33.806 2.09837 34.0871 1.8083 34.4158 1.58071C34.9388 1.23593 35.5585 1.06908 36.1832 1.10472C36.5811 1.13757 36.9687 1.24824 37.3241 1.43054C37.6258 1.58792 37.9215 1.75671 38.2105 1.93654L38.2105 1.93658L38.2172 1.94063L40.4594 3.29571L40.5004 3.32136L40.5102 3.32751L40.5203 3.33329C40.7966 3.49175 41.0657 3.66256 41.3267 3.84519L41.3268 3.84528C41.6371 4.06227 41.9045 4.33517 42.1154 4.65011C42.4368 5.15692 42.5945 5.7508 42.5669 6.35089C42.5465 6.7877 42.4158 7.15327 42.2841 7.44244C42.1498 7.72975 42.0028 8.01092 41.8435 8.2851L41.8433 8.28503L41.8369 8.29659L40.8389 10.1048L40.7517 10.2627L40.7661 10.4426L41.5026 19.6424L41.5027 19.6439L41.5444 20.181C41.5659 20.5372 41.5767 20.8932 41.5767 21.2493V21.3255L41.5957 21.3992C41.6683 21.6805 41.6585 21.9768 41.5675 22.2527ZM4.09501 42.9235C4.09496 42.9237 4.09491 42.9238 4.09486 42.9239L4.65616 43.1359L4.09516 42.9231C4.09511 42.9233 4.09506 42.9234 4.09501 42.9235Z" fill="#0F67B1" stroke="#F6FFFF" stroke-width="1.2"/>
</svg>
