<svg width="78" height="60" viewBox="0 0 78 60" fill="none" xmlns="http://www.w3.org/2000/svg">
<mask id="path-1-inside-1_1_977" fill="white">
<path d="M48.5898 52.4611H29.1597H48.5898ZM68.0198 52.4611H70.9849C71.8398 52.4611 72.2672 52.4611 72.6247 52.4145C73.9112 52.2543 75.1076 51.6698 76.0246 50.7535C76.9416 49.8372 77.527 48.6413 77.6882 47.3549C77.7349 46.9935 77.7349 46.5661 77.7349 45.7111V34.9741C77.7349 28.275 75.0736 21.8502 70.3366 17.1132C65.5996 12.3762 59.1749 9.71503 52.4758 9.71503M50.5328 44.6891V11.658C50.5328 6.16321 50.5328 3.4158 48.8229 1.70984C47.1209 2.31624e-07 44.3735 0 38.8748 0H11.6727C6.17786 0 3.43045 2.31624e-07 1.72449 1.70984C0.0146487 3.41192 0.0146484 6.15933 0.0146484 11.658V42.7461C0.0146484 46.3795 0.0146483 48.1943 0.795736 49.5466C1.30732 50.4327 2.04311 51.1685 2.92916 51.6801C4.28149 52.4611 6.09625 52.4611 9.72967 52.4611"/>
</mask>
<path d="M48.5898 54.3264C49.6199 54.3264 50.4551 53.4913 50.4551 52.4611C50.4551 51.431 49.6199 50.5959 48.5898 50.5959V54.3264ZM29.1597 50.5959C28.1296 50.5959 27.2944 51.431 27.2944 52.4611C27.2944 53.4913 28.1296 54.3264 29.1597 54.3264V50.5959ZM68.0198 50.5959C66.9897 50.5959 66.1545 51.431 66.1545 52.4611C66.1545 53.4913 66.9897 54.3264 68.0198 54.3264V50.5959ZM72.6247 52.4145L72.3942 50.5635L72.3835 50.5649L72.6247 52.4145ZM77.6882 47.3549L75.8383 47.1162L75.8374 47.123L77.6882 47.3549ZM77.7349 34.9741H79.6001H77.7349ZM52.4758 7.84974C51.4456 7.84974 50.6105 8.68486 50.6105 9.71503C50.6105 10.7452 51.4456 11.5803 52.4758 11.5803V7.84974ZM48.6675 44.6891C48.6675 45.7193 49.5026 46.5544 50.5328 46.5544C51.563 46.5544 52.3981 45.7193 52.3981 44.6891H48.6675ZM48.8229 1.70984L47.501 3.0258L47.5055 3.0303L48.8229 1.70984ZM1.72449 1.70984L3.04045 3.03181L3.04495 3.0273L1.72449 1.70984ZM0.795736 49.5466L2.4111 48.614L2.41096 48.6137L0.795736 49.5466ZM2.92916 51.6801L3.86208 50.0648L3.86183 50.0647L2.92916 51.6801ZM9.72967 54.3264C10.7598 54.3264 11.595 53.4913 11.595 52.4611C11.595 51.431 10.7598 50.5959 9.72967 50.5959V54.3264ZM48.5898 50.5959H29.1597V54.3264H48.5898V50.5959ZM68.0198 54.3264H70.9849V50.5959H68.0198V54.3264ZM70.9849 54.3264C71.7807 54.3264 72.358 54.3304 72.866 54.2641L72.3835 50.5649C72.1764 50.5919 71.8988 50.5959 70.9849 50.5959V54.3264ZM72.8552 54.2655C74.5534 54.054 76.1326 53.2825 77.343 52.073L74.7061 49.434C74.0826 50.0571 73.269 50.4546 72.3942 50.5635L72.8552 54.2655ZM77.343 52.073C78.5535 50.8634 79.3263 49.2848 79.539 47.5868L75.8374 47.123C75.7278 47.9977 75.3297 48.8109 74.7061 49.434L77.343 52.073ZM79.5382 47.5936C79.604 47.0835 79.6001 46.5084 79.6001 45.7111H75.8696C75.8696 46.6237 75.8657 46.9035 75.8383 47.1162L79.5382 47.5936ZM79.6001 45.7111V34.9741H75.8696V45.7111H79.6001ZM79.6001 34.9741C79.6001 27.7803 76.7424 20.8811 71.6556 15.7943L69.0177 18.4322C73.4049 22.8194 75.8696 28.7697 75.8696 34.9741H79.6001ZM71.6556 15.7943C66.5688 10.7075 59.6696 7.84974 52.4758 7.84974V11.5803C58.6802 11.5803 64.6305 14.045 69.0177 18.4322L71.6556 15.7943ZM52.3981 44.6891V11.658H48.6675V44.6891H52.3981ZM52.3981 11.658C52.3981 8.96345 52.402 6.75454 52.1676 5.01415C51.926 3.21983 51.4006 1.64671 50.1404 0.38939L47.5055 3.0303C47.9551 3.47894 48.2847 4.1325 48.4705 5.51208C48.6635 6.94559 48.6675 8.85779 48.6675 11.658H52.3981ZM50.1449 0.393897C48.889 -0.867718 47.3157 -1.39322 45.5216 -1.63486C43.7812 -1.86926 41.5712 -1.86529 38.8748 -1.86529V1.86529C41.677 1.86529 43.5901 1.86926 45.0236 2.06233C46.4033 2.24815 47.0548 2.57756 47.501 3.02579L50.1449 0.393897ZM38.8748 -1.86529H11.6727V1.86529H38.8748V-1.86529ZM11.6727 -1.86529C8.9781 -1.86529 6.76918 -1.86926 5.02879 -1.63486C3.23448 -1.39321 1.66136 -0.867792 0.404038 0.392391L3.04495 3.0273C3.49359 2.57764 4.14715 2.24813 5.52673 2.06233C6.96024 1.86926 8.87244 1.86529 11.6727 1.86529V-1.86529ZM0.408545 0.387888C-0.85307 1.64377 -1.37858 3.21706 -1.62022 5.01123C-1.85461 6.75163 -1.85064 8.96155 -1.85064 11.658H1.87993C1.87993 8.85581 1.88391 6.94267 2.07697 5.50917C2.2628 4.12944 2.59221 3.47799 3.04044 3.0318L0.408545 0.387888ZM-1.85064 11.658V42.7461H1.87993V11.658H-1.85064ZM-1.85064 42.7461C-1.85064 44.5285 -1.85243 45.9895 -1.74538 47.1702C-1.636 48.3766 -1.40134 49.4722 -0.819483 50.4796L2.41096 48.6137C2.21173 48.2688 2.05584 47.7807 1.96995 46.8334C1.88172 45.8602 1.87993 44.5972 1.87993 42.7461H-1.85064ZM-0.819631 50.4793C-0.144341 51.6489 0.826899 52.6201 1.99648 53.2954L3.86183 50.0647C3.25931 49.7168 2.75898 49.2165 2.4111 48.614L-0.819631 50.4793ZM1.99623 53.2953C3.00362 53.8771 4.09914 54.1118 5.30559 54.2212C6.48626 54.3282 7.94732 54.3264 9.72967 54.3264V50.5959C7.87861 50.5959 6.61557 50.5941 5.64243 50.5058C4.69505 50.4199 4.20702 50.2641 3.86208 50.0648L1.99623 53.2953Z" fill="#0F67B1" mask="url(#path-1-inside-1_1_977)"/>
<path d="M67.4767 50.285C67.4767 52.6142 66.5514 54.848 64.9044 56.4951C63.2573 58.1421 61.0235 59.0674 58.6943 59.0674C56.365 59.0674 54.1312 58.1421 52.4842 56.4951C50.8372 54.848 49.9119 52.6142 49.9119 50.285C49.9119 47.9557 50.8372 45.7219 52.4842 44.0749C54.1312 42.4279 56.365 41.5026 58.6943 41.5026C61.0235 41.5026 63.2573 42.4279 64.9044 44.0749C66.5514 45.7219 67.4767 47.9557 67.4767 50.285ZM28.6165 50.285C28.6166 52.6142 27.6913 54.848 26.0442 56.4951C24.3972 58.1421 22.1634 59.0674 19.8342 59.0674C17.5049 59.0674 15.2711 58.1421 13.6241 56.4951C11.9771 54.848 11.0518 52.6142 11.0518 50.285C11.0518 47.9557 11.9771 45.7219 13.6241 44.0749C15.2711 42.4279 17.5049 41.5026 19.8342 41.5026C22.1634 41.5026 24.3972 42.4279 26.0442 44.0749C27.6913 45.7219 28.6165 47.9557 28.6165 50.285Z" stroke="#0F67B1" stroke-width="1.86529" stroke-linecap="round" stroke-linejoin="round"/>
</svg>
