<svg width="30" height="37" viewBox="0 0 30 37" fill="none" xmlns="http://www.w3.org/2000/svg">
<path fill-rule="evenodd" clip-rule="evenodd" d="M22.1202 15.6759C22.1202 17.4441 21.4178 19.1397 20.1676 20.39C18.9173 21.6402 17.2216 22.3426 15.4535 22.3426C13.6854 22.3426 11.9897 21.6402 10.7395 20.39C9.48924 19.1397 8.78687 17.4441 8.78687 15.6759C8.78687 13.9078 9.48924 12.2121 10.7395 10.9619C11.9897 9.71166 13.6854 9.00928 15.4535 9.00928C17.2216 9.00928 18.9173 9.71166 20.1676 10.9619C21.4178 12.2121 22.1202 13.9078 22.1202 15.6759ZM18.7869 15.6759C18.7869 16.56 18.4357 17.4078 17.8105 18.033C17.1854 18.6581 16.3376 19.0093 15.4535 19.0093C14.5695 19.0093 13.7216 18.6581 13.0965 18.033C12.4714 17.4078 12.1202 16.56 12.1202 15.6759C12.1202 14.7919 12.4714 13.944 13.0965 13.3189C13.7216 12.6938 14.5695 12.3426 15.4535 12.3426C16.3376 12.3426 17.1854 12.6938 17.8105 13.3189C18.4357 13.944 18.7869 14.7919 18.7869 15.6759Z" fill="#0F67B1"/>
<path fill-rule="evenodd" clip-rule="evenodd" d="M4.65667 26.0857C2.50807 24.0399 1.01435 21.403 0.364399 18.5084C-0.28555 15.6137 -0.0625354 12.5913 1.00524 9.8234C2.07302 7.05549 3.9376 4.66637 6.3632 2.95817C8.78879 1.24997 11.6665 0.299401 14.6323 0.226677C17.5981 0.153953 20.5189 0.962338 23.0253 2.54961C25.5317 4.13687 27.5112 6.43173 28.7133 9.14398C29.9155 11.8562 30.2864 14.8641 29.7791 17.7871C29.2718 20.7101 27.9091 23.4171 25.8633 25.5657L15.52 36.429L4.65667 26.0857ZM23.45 23.2673L15.405 31.7173L6.955 23.6723C5.28395 22.0812 4.12223 20.0303 3.61675 17.7789C3.11127 15.5276 3.28473 13.1769 4.1152 11.0241C4.94566 8.87137 6.39583 7.0132 8.28234 5.6846C10.1688 4.35599 12.407 3.61663 14.7137 3.55999C17.0204 3.50336 19.2921 4.13199 21.2415 5.36641C23.1909 6.60083 24.7305 8.3856 25.6657 10.495C26.6008 12.6044 26.8894 14.9438 26.495 17.2172C26.1006 19.4907 25.041 21.5961 23.45 23.2673Z" fill="#0F67B1"/>
</svg>
