<svg width="33" height="27" viewBox="0 0 33 27" fill="none" xmlns="http://www.w3.org/2000/svg">
<path d="M2.33333 2.49251L15.4883 12.5525C15.7789 12.7744 16.1344 12.8947 16.5 12.8947C16.8656 12.8947 17.2211 12.7744 17.5117 12.5525L30.6667 2.49251M3.16667 24.9925H29.8333C30.2754 24.9925 30.6993 24.8169 31.0118 24.5044C31.3244 24.1918 31.5 23.7679 31.5 23.3258V3.32585C31.5 2.88382 31.3244 2.4599 31.0118 2.14734C30.6993 1.83477 30.2754 1.65918 29.8333 1.65918H3.16667C2.72464 1.65918 2.30072 1.83477 1.98816 2.14734C1.67559 2.4599 1.5 2.88382 1.5 3.32585V23.3258C1.5 23.7679 1.67559 24.1918 1.98816 24.5044C2.30072 24.8169 2.72464 24.9925 3.16667 24.9925Z" stroke="#0F67B1" stroke-width="3" stroke-linecap="round"/>
</svg>
