<svg width="61" height="60" viewBox="0 0 61 60" fill="none" xmlns="http://www.w3.org/2000/svg">
<path d="M19.8335 4.67701L19.8332 4.67717L14.062 7.70507L14.0619 7.70514C11.1346 9.24021 8.84181 10.4467 7.07381 11.6244C5.26207 12.8368 3.91376 14.0773 2.93958 15.7321L2.93951 15.7322C1.96674 17.3838 1.51559 19.1922 1.29516 21.4208C1.08164 23.5972 1.08088 26.284 1.08088 29.7293V30.2707C1.08088 33.7159 1.08164 36.4026 1.29514 38.579C1.51547 40.8096 1.96922 42.616 2.93992 44.2685C3.91431 45.9234 5.26003 47.1637 7.07652 48.3756L7.07695 48.3759C8.83887 49.5532 11.1338 50.7594 14.0619 52.2949L14.062 52.2949L19.8332 55.3228L19.8335 55.323C22.2184 56.5757 24.0953 57.5601 25.7028 58.226L19.8335 4.67701ZM19.8335 4.67701C22.2183 3.42434 24.0952 2.44002 25.7026 1.77411L19.8335 4.67701ZM40.9165 55.323L40.9171 55.3227L46.6876 52.2979L40.9165 55.323ZM40.9165 55.323C38.5317 56.5757 36.6548 57.56 35.0474 58.2259C33.398 58.9084 31.9388 59.2941 30.375 59.2941C28.8115 59.2941 27.3553 58.9086 25.7028 58.226L40.9165 55.323ZM57.8104 44.2679L57.8105 44.2678C58.7832 42.6163 59.2344 40.8079 59.4548 38.5794C59.6684 36.403 59.6691 33.7161 59.6691 30.2735V29.7265C59.6691 26.2839 59.6684 23.597 59.4548 21.4206C59.2345 19.1905 58.7808 17.3843 57.8104 15.7321C56.836 14.0769 55.4902 12.8364 53.6735 11.6244L53.6731 11.6241C51.9111 10.4468 49.6162 9.24064 46.6881 7.70514L46.688 7.70507L40.9168 4.67717L40.9165 4.67701C38.5315 3.42427 36.6546 2.43991 35.0472 1.774C33.3947 1.09139 31.9385 0.705882 30.375 0.705882C28.8112 0.705882 27.3522 1.09154 25.7028 1.774L57.8104 44.2679ZM57.8104 44.2679C56.836 45.9231 55.4902 47.1636 53.6735 48.3756L54.0652 48.9628M57.8104 44.2679L54.0652 48.9628M54.0652 48.9628L53.6735 48.3756M54.0652 48.9628L53.6735 48.3756M21.033 7.17778L21.0331 7.17773C23.5056 5.88033 25.2797 4.95266 26.7619 4.34029C28.2183 3.7364 29.3043 3.48016 30.375 3.48016C31.4486 3.48016 32.5319 3.73647 33.9882 4.34034C33.9884 4.3404 33.9885 4.34046 33.9886 4.34052L33.7183 4.99256L21.033 7.17778ZM21.033 7.17778L20.3046 7.56011L19.1155 8.18426L20.3039 8.80976L44.0248 21.2953L44.3453 21.464L44.6692 21.3021L53.965 16.6556L54.8516 16.2124L54.1429 15.5195C53.6014 14.99 52.9482 14.475 52.1364 13.9308L52.1349 13.9299M21.033 7.17778L52.1349 13.9299M52.1349 13.9299C50.4978 12.8385 48.3245 11.6947 45.2951 10.1077L52.1349 13.9299ZM4.60173 18.6628L5.40138 19.0626L28.5977 30.6607L28.9879 30.8558V31.2921V55.4679V56.4292L28.0707 56.1414C27.6674 56.0149 27.231 55.8539 26.7622 55.6598C26.7621 55.6598 26.7619 55.6597 26.7618 55.6597L27.0317 55.0074L4.60173 18.6628ZM4.60173 18.6628L4.39833 19.5334M4.60173 18.6628L4.39833 19.5334M4.05678 38.3081C4.25506 40.3107 4.63852 41.6798 5.33086 42.8596L5.33139 42.8605C6.02291 44.0348 7.0099 44.9962 8.61738 46.0698L9.00942 45.4828L8.61739 46.0698C10.2519 47.1614 12.4254 48.3052 15.4543 49.892L4.05678 38.3081ZM4.05678 38.3081C3.85516 36.2834 3.85516 33.7343 3.85516 30.2051M4.05678 38.3081L3.85516 30.2051M4.39833 19.5334C4.25042 20.1664 4.13725 20.8757 4.05673 21.6896L4.05667 21.6902M4.39833 19.5334L4.05667 21.6902M4.05667 21.6902C3.85717 23.7251 3.85516 26.2854 3.85516 29.8353M4.05667 21.6902L3.85516 29.8353M56.6934 21.6937C56.6249 20.9705 56.5113 20.2523 56.3533 19.5432L56.1568 18.6615L55.3488 19.0653L46.106 23.6839L45.7156 23.879V24.3154V32.7907C45.7156 33.1586 45.5695 33.5114 45.3093 33.7716C45.0492 34.0317 44.6964 34.1778 44.3285 34.1778C43.9606 34.1778 43.6078 34.0317 43.3476 33.7716C43.0875 33.5114 42.9413 33.1586 42.9413 32.7907V26.4112V25.269L41.9198 25.7798L32.1523 30.6635L31.7621 30.8586V31.2949V55.4651V56.4219L32.6763 56.1396C33.0808 56.0147 33.5183 55.8542 33.9878 55.6598M56.6934 21.6937C56.8948 23.7182 56.8948 26.2668 56.8948 29.7949V29.8381V30.1647C56.8948 33.7145 56.8928 36.2749 56.6933 38.3071L56.6933 38.3076C56.4951 40.3124 56.1146 41.6792 55.4219 42.8596L55.4207 42.8617C54.7267 44.0349 53.7405 44.9959 52.1359 46.0695L52.1349 46.0701C50.4978 47.1615 48.324 48.3028 45.2957 49.892C45.2956 49.892 45.2956 49.892 45.2956 49.892L39.7143 52.8222L39.7141 52.8223C37.2418 54.1195 35.4702 55.0474 33.9878 55.6598M56.6934 21.6937C56.6935 21.6943 56.6935 21.6948 56.6936 21.6954L55.9908 21.7619L56.6932 21.6919C56.6933 21.6925 56.6933 21.6931 56.6934 21.6937ZM33.9878 55.6598L33.7183 55.0074M33.9878 55.6598C33.9879 55.6598 33.9881 55.6597 33.9882 55.6597L33.7183 55.0074M33.7183 55.0074C33.5304 55.0852 33.349 55.1569 33.1739 55.2225L39.3862 52.1972C36.9024 53.5005 35.1638 54.4102 33.7183 55.0074ZM53.6735 48.3756C51.9084 49.5532 49.616 50.7595 46.6882 52.2976L53.6735 48.3756ZM3.85516 29.8353V30.1619M3.85516 29.8353V30.1619M3.85516 30.1619V30.2051M3.85516 30.1619V30.2051M16.7861 9.99684L16.4177 9.59869L15.9381 9.85225L15.4549 10.1077C15.4544 10.108 15.454 10.1082 15.4535 10.1085C12.4272 11.6938 10.255 12.837 8.62102 13.9278C7.9052 14.3933 7.23405 14.9241 6.61618 15.5134L5.88957 16.2064L6.78766 16.6555L30.0593 28.2927L30.3751 28.4507L30.6909 28.2926L40.0593 23.6043L41.2892 22.9888L40.0721 22.3483L17.1792 10.3022C17.1781 10.3016 17.177 10.3009 17.1758 10.3003C17.0303 10.221 16.8987 10.1185 16.7861 9.99684Z" fill="#0F67B1" stroke="#F6FFFF" stroke-width="1.41176"/>
</svg>
