<svg width="30" height="31" viewBox="0 0 30 31" fill="none" xmlns="http://www.w3.org/2000/svg">
<path d="M25.6281 4.63702C24.2458 3.2412 22.5995 2.13445 20.7852 1.38128C18.9708 0.628109 17.0247 0.243573 15.0603 0.250081C6.82914 0.250081 0.120603 6.95862 0.120603 15.1898C0.120603 17.828 0.81407 20.3908 2.11055 22.6521L0 30.4008L7.91457 28.3204C10.1005 29.5114 12.5578 30.1446 15.0603 30.1446C23.2915 30.1446 30 23.436 30 15.2049C30 11.2099 28.4472 7.45611 25.6281 4.63702ZM15.0603 27.6119C12.8291 27.6119 10.6432 27.0089 8.72864 25.8782L8.27638 25.6069L3.57286 26.843L4.82412 22.2601L4.52261 21.7928C3.28274 19.8135 2.62451 17.5254 2.62312 15.1898C2.62312 8.34556 8.201 2.76767 15.0452 2.76767C18.3618 2.76767 21.4824 4.06415 23.8191 6.41591C24.9763 7.56746 25.8933 8.93733 26.517 10.4461C27.1407 11.9548 27.4586 13.5723 27.4523 15.2049C27.4824 22.0491 21.9045 27.6119 15.0603 27.6119ZM21.8744 18.3255C21.4975 18.1446 19.6583 17.24 19.3266 17.1044C18.9799 16.9837 18.7387 16.9234 18.4824 17.2853C18.2261 17.6621 17.5176 18.5064 17.3065 18.7476C17.0955 19.0039 16.8693 19.034 16.4925 18.838C16.1156 18.6571 14.9095 18.2501 13.4925 16.9837C12.3769 15.9888 11.6382 14.7677 11.4121 14.3908C11.201 14.0139 11.3819 13.8179 11.5779 13.6219C11.7437 13.4561 11.9548 13.1848 12.1357 12.9737C12.3166 12.7626 12.392 12.5968 12.5126 12.3556C12.6332 12.0993 12.5729 11.8883 12.4824 11.7074C12.392 11.5265 11.6382 9.68727 11.3367 8.9335C11.0352 8.20988 10.7186 8.30033 10.4925 8.28526H9.76884C9.51256 8.28526 9.1206 8.37571 8.77387 8.75259C8.44221 9.12948 7.47739 10.034 7.47739 11.8732C7.47739 13.7124 8.8191 15.4913 9 15.7325C9.1809 15.9888 11.6382 19.7576 15.3769 21.3707C16.2663 21.7626 16.9598 21.9888 17.5025 22.1546C18.392 22.441 19.206 22.3958 19.8543 22.3054C20.5779 22.1998 22.0703 21.4008 22.3719 20.5265C22.6884 19.6521 22.6884 18.9134 22.5829 18.7476C22.4774 18.5817 22.2513 18.5064 21.8744 18.3255Z" fill="#0F67B1"/>
</svg>
